<svg width="111" height="79" viewBox="0 0 111 79" fill="none" xmlns="http://www.w3.org/2000/svg">
<path d="M69.2254 3.05126C59.0395 -1.01724 43.9311 0.483691 32.8221 6.64733C28.9049 8.86786 27.993 8.97201 24.3456 7.19096C19.6205 4.93364 9.47589 3.20793 5.23761 4.02916C1.28948 4.76731 -0.949146 9.01874 0.656723 12.7187C2.00359 15.7864 9.05973 23.7336 14.3545 28.2609C16.7066 30.1774 17.6288 32.0325 17.9289 36.1063C20.5588 63.4515 44.9504 81.2685 70.3699 74.3818C78.6807 72.1589 78.8258 72.1174 87.0843 75.482C100.7 80.8444 109.581 79.7926 110.172 72.795C110.504 68.4617 105.81 62.1925 99.334 58.4745C94.35 55.585 93.9873 55.1394 94.7647 52.6407C99.3461 37.3581 94.0006 19.7381 82.0224 10.7673C79.9915 9.15125 77.4943 7.27629 76.5203 6.61336C75.5981 5.85711 72.3237 4.28319 69.2254 3.05126ZM82.1254 18.2725C86.8191 23.4428 90.9527 35.9943 90.434 43.5206C90.1436 46.9002 89.0033 51.151 87.656 53.5775C84.8578 58.6171 80.1529 63.5748 77.9975 63.7211C75.8939 63.774 58.2994 53.272 43.5545 43.1313C22.976 28.7745 23.1521 29.1165 27.8677 20.6239C34.2933 9.05154 47.8375 2.89695 60.0752 5.90697C67.4013 7.65493 77.7943 13.5478 82.1254 18.2725ZM22.7903 18.7814C19.8884 24.0077 19.4946 24.2774 17.6295 23.2418C15.1115 21.8437 8.8946 15.4613 6.83274 12.3629C6.11782 11.2333 5.98322 9.93761 6.66716 9.58478C8.62575 8.47452 19.7445 9.76431 22.9152 11.5249L25.8995 13.1819L22.7903 18.7814ZM102.152 68.3418C103.602 70.124 104.286 71.9689 103.737 72.5186C101.996 74.116 96.4417 73.3518 90.2142 70.5044L84.4011 68.0093L86.4634 65.6135C91.2305 60.3241 91.0854 60.3656 95.4685 62.7994C97.8 64.0939 100.794 66.6113 102.152 68.3418ZM50.5586 54.4683C61.0966 61.4185 69.8627 67.3848 69.987 67.8201C70.4118 69.0327 63.6451 69.7931 56.9303 69.3614C47.5524 68.6719 37.2526 62.8308 31.3881 54.9348C27.513 49.6086 23.4622 39.545 24.4986 37.6785C24.7577 37.2118 26.3948 37.9988 28.1978 39.3662C29.9075 40.6818 40.0206 47.5182 50.5586 54.4683Z" fill="url(#paint0_linear_35_1381)"/>
<defs>
<linearGradient id="paint0_linear_35_1381" x1="19.0062" y1="-25.4169" x2="21.224" y2="102.693" gradientUnits="userSpaceOnUse">
<stop stop-color="#42307D"/>
<stop offset="1" stop-color="#7F56D9"/>
</linearGradient>
</defs>
</svg>
