<svg width="50" height="43" viewBox="0 0 50 43" fill="none" xmlns="http://www.w3.org/2000/svg">
<path d="M24.3036 1.27953C23.394 1.99488 21.6397 4.27102 20.4702 6.28703L18.3262 9.99389L11.3092 10.5141C3.12278 11.1645 1.43352 11.6847 0.458941 13.8308C-0.71055 16.3671 0.199054 18.1229 5.00696 23.0004C7.54086 25.4716 9.61996 27.9429 9.61996 28.3981C9.61996 28.8533 8.8403 31.8448 7.93069 34.9664C6.95612 38.153 6.37137 41.2745 6.63126 41.8598C7.216 43.4856 9.61996 42.8353 15.7923 39.3235C18.651 37.6977 21.3149 36.3321 21.6397 36.3321C22.0296 36.3321 24.0437 37.2425 26.1878 38.283C30.7358 40.4941 32.9448 40.6892 35.0239 38.9984C36.3233 37.9579 36.5832 37.0474 36.7781 32.8853L37.038 27.9429L41.0663 25.4066C46.264 21.9599 48.4731 19.9439 48.9928 17.7978C49.7725 14.5462 45.7442 12.3351 39.0522 12.27C35.0889 12.27 33.1397 11.2945 32.62 9.21349C31.9053 6.28703 30.0211 2.18998 28.7866 1.01939C27.3572 -0.41132 26.3827 -0.346291 24.3036 1.27953ZM26.5126 10.0589C26.5126 10.5792 26.0578 10.9694 25.538 10.9694C24.4335 10.9694 24.3685 10.8393 24.9533 9.40859C25.4081 8.238 26.5126 8.6282 26.5126 10.0589ZM14.8177 17.1475C14.8177 17.9929 13.2584 21.3746 12.8685 21.3746C12.0889 21.3746 8.32052 18.1229 8.32052 17.4726C8.32052 17.1475 8.97024 16.8223 9.81487 16.6922C11.1793 16.4971 14.8177 16.8223 14.8177 17.1475ZM26.7075 17.4076C28.3968 18.0579 28.7216 18.7733 29.4363 22.6752C29.8262 24.8863 29.7612 25.0164 26.3177 26.9023L22.7442 28.7883L20.1454 27.0324L17.4815 25.2765L18.4561 22.4801C20.2104 17.4076 22.6793 15.9118 26.7075 17.4076ZM39.7668 19.0334C39.377 20.0739 36.3883 21.5046 35.6087 21.0494C35.3488 20.9193 34.9589 20.139 34.764 19.4236C34.4392 18.253 34.764 18.1229 37.2979 18.1229C39.377 18.1229 40.0267 18.318 39.7668 19.0334ZM15.4674 32.0399C15.4674 32.235 15.2075 32.5602 14.8177 32.7553C14.4928 32.9504 14.168 32.8203 14.168 32.4951C14.168 32.1049 14.4928 31.7798 14.8177 31.7798C15.2075 31.7798 15.4674 31.9098 15.4674 32.0399Z" fill="url(#paint0_linear_35_1543)"/>
<defs>
<linearGradient id="paint0_linear_35_1543" x1="-0.00076446" y1="0.000281944" x2="42.2942" y2="48.617" gradientUnits="userSpaceOnUse">
<stop stop-color="#42307D"/>
<stop offset="1" stop-color="#7F56D9"/>
</linearGradient>
</defs>
</svg>
