<svg width="268" height="262" viewBox="0 0 268 262" fill="none" xmlns="http://www.w3.org/2000/svg">
<path d="M6.21628 158.255C8.51296 166.794 12.9833 174.082 20.4838 181.199C27.2295 187.601 31.2472 189.98 39.6857 192.614C44.5084 194.145 47.0913 194.447 54.6269 194.253C63.2651 194.031 63.9109 194.106 66.8583 196.007C78.2306 203.485 98.4528 203.149 118.703 195.226C136.995 188.042 161.803 171.726 174.87 158.24C179.344 153.619 180.321 152.306 180.113 151.392C179.654 149.703 178.705 150.325 171.294 156.906C154.051 172.431 134.023 185.222 116.546 191.925C103.167 197.142 89.5131 198.965 79.2067 196.977C75.0916 196.117 68.4487 193.575 68.3819 192.796C68.3746 192.52 70.3173 191.228 72.6723 189.88C77.6979 186.947 79.9812 184.635 82.079 180.535C84.2637 176.249 83.9673 172.026 81.2141 168.787C78.369 165.549 76.7376 164.718 73.1015 164.581C68.9588 164.412 65.2848 166.3 61.9875 170.247C57.6217 175.508 56.6708 181.234 59.1648 186.825C59.8497 188.371 60.167 189.926 59.8093 190.303C58.9148 191.246 48.7964 191.138 43.9859 190.067C29.9742 187.07 16.8895 175.728 10.147 160.821C8.77714 157.729 7.33011 155.192 7.00724 155.154C5.80524 154.909 5.59877 155.788 6.21628 158.255ZM68.0331 169.355C70.7955 167.767 75.7652 167.915 77.6522 169.706C81.3316 173.197 80.7287 178.179 75.8514 183.224C71.8263 187.465 65.9143 189.916 64.0273 188.126C61.6687 185.887 60.7988 180.852 62.0297 177.004C63.3524 173.154 64.7762 171.37 68.0331 169.355Z" fill="url(#paint0_linear_35_1692)"/>
<path d="M101.373 185.05C102.6 186.214 110.133 185.929 116.119 184.533C124.022 182.629 130.052 179.393 138.69 172.274C142.65 169.046 143.982 167.264 143.039 166.369C142.284 165.653 140.195 166.626 134.183 170.505C123.468 177.355 114.968 181.022 106.312 182.303C101.319 183.029 100.052 183.797 101.373 185.05Z" fill="url(#paint1_linear_35_1692)"/>
<path d="M190.473 101.928C190.644 103.165 192.722 106.928 196.852 113.535L199.736 118.242L195.46 128.606C190.536 140.503 190.118 142.077 191.392 143.286C192.901 144.718 195.629 143.544 202.935 138.207C206.769 135.396 210.199 133.008 210.656 132.905C211.615 132.65 215.531 136.366 221.556 143.337C227.201 149.859 227.899 150.163 230.717 147.194C231.7 146.157 236.795 137.198 241.958 127.318C247.212 117.435 252.513 107.597 253.833 105.357C256.649 100.594 257.226 98.0966 255.82 97.1212C255.212 96.7231 251.166 96.7352 246.67 97.1267C242.175 97.5182 232.113 97.8229 224.295 97.7481C200.427 97.5803 198.497 97.6299 195.608 97.9341C192.72 98.2383 190.288 100.14 190.473 101.928ZM207.474 101.491C213.683 101.561 222.788 101.603 227.661 101.57C232.534 101.536 236.814 101.656 237.139 101.786C237.742 102 234.468 103.372 214.447 111.243C205.619 114.689 202.745 115.544 202.313 114.866C197.5 106.805 195.222 102.404 195.669 101.933C195.937 101.65 201.22 101.468 207.474 101.491ZM225.741 110.585C243.32 104.248 246.241 103.437 243.317 105.857C233.508 113.926 216.399 125.814 210.181 128.871C207.958 129.985 204.472 132.052 202.398 133.577C200.321 135.01 198.286 136.303 197.874 136.36C197.462 136.417 197.992 133.874 199.106 130.811C200.128 127.75 201.358 123.902 201.776 122.328L202.575 119.503L205.754 118.042C207.573 117.259 216.54 113.856 225.741 110.585ZM220.337 126.954C224.362 124.414 244.53 109.964 245.782 108.644C246.992 107.464 245.65 110.579 242.192 117.151C240.177 120.881 236.426 128.518 233.816 134.102C231.251 139.64 228.895 144.39 228.626 144.673C228.134 145.191 226.528 143.577 217.948 133.913C216.337 132.115 215.235 130.442 215.503 130.159C215.727 129.924 217.94 128.441 220.337 126.954Z" fill="url(#paint2_linear_35_1692)"/>
<defs>
<linearGradient id="paint0_linear_35_1692" x1="-0.000740161" y1="161.763" x2="180.933" y2="162.199" gradientUnits="userSpaceOnUse">
<stop stop-color="#42307D"/>
<stop offset="1" stop-color="#7F56D9"/>
</linearGradient>
<linearGradient id="paint1_linear_35_1692" x1="100.581" y1="184.3" x2="134.457" y2="195.624" gradientUnits="userSpaceOnUse">
<stop stop-color="#42307D"/>
<stop offset="1" stop-color="#7F56D9"/>
</linearGradient>
<linearGradient id="paint2_linear_35_1692" x1="169.685" y1="122.688" x2="265.436" y2="131.668" gradientUnits="userSpaceOnUse">
<stop stop-color="#42307D"/>
<stop offset="1" stop-color="#7F56D9"/>
</linearGradient>
</defs>
</svg>
